
<svg width="154" height="29" viewBox="0 0 154 29" fill="none" xmlns="http://www.w3.org/2000/svg">
<path d="M0.0859375 2H6.34375L12.9531 18.125H13.2344L19.8437 2H26.1016V26H21.1797V10.3789H20.9805L14.7695 25.8828H11.418L5.20703 10.3203H5.00781V26H0.0859375V2ZM32.6813 26.3398C31.5329 26.3398 30.5094 26.1406 29.611 25.7422C28.7125 25.3359 28.0016 24.7383 27.4782 23.9492C26.9625 23.1523 26.7047 22.1602 26.7047 20.9727C26.7047 19.9727 26.8883 19.1328 27.2555 18.4531C27.6227 17.7734 28.1227 17.2266 28.7555 16.8125C29.3883 16.3984 30.1071 16.0859 30.9118 15.875C31.7243 15.6641 32.5758 15.5156 33.4664 15.4297C34.5133 15.3203 35.3571 15.2187 35.9977 15.125C36.6383 15.0234 37.1032 14.875 37.3922 14.6797C37.6813 14.4844 37.8258 14.1953 37.8258 13.8125V13.7422C37.8258 13 37.5914 12.4258 37.1227 12.0195C36.6618 11.6133 36.0055 11.4102 35.1539 11.4102C34.2555 11.4102 33.5407 11.6094 33.0094 12.0078C32.4782 12.3984 32.1266 12.8906 31.9547 13.4844L27.3375 13.1094C27.5719 12.0156 28.0329 11.0703 28.7204 10.2734C29.4079 9.46875 30.2946 8.85156 31.3805 8.42187C32.4743 7.98437 33.7399 7.76563 35.1774 7.76563C36.1774 7.76563 37.1344 7.88281 38.0485 8.11719C38.9704 8.35156 39.7868 8.71484 40.4977 9.20703C41.2164 9.69922 41.7829 10.332 42.1969 11.1055C42.611 11.8711 42.818 12.7891 42.818 13.8594V26H38.0836V23.5039H37.943C37.6539 24.0664 37.2672 24.5625 36.7829 24.9922C36.2985 25.4141 35.7164 25.7461 35.0368 25.9883C34.3571 26.2227 33.5719 26.3398 32.6813 26.3398ZM34.111 22.8945C34.8454 22.8945 35.4938 22.75 36.0563 22.4609C36.6188 22.1641 37.0602 21.7656 37.3805 21.2656C37.7008 20.7656 37.861 20.1992 37.861 19.5664V17.6563C37.7047 17.7578 37.4899 17.8516 37.2164 17.9375C36.9508 18.0156 36.65 18.0898 36.3141 18.1602C35.9782 18.2227 35.6422 18.2812 35.3063 18.3359C34.9704 18.3828 34.6657 18.4258 34.3922 18.4648C33.8063 18.5508 33.2946 18.6875 32.8571 18.875C32.4196 19.0625 32.0797 19.3164 31.8375 19.6367C31.5954 19.9492 31.4743 20.3398 31.4743 20.8086C31.4743 21.4883 31.7204 22.0078 32.2125 22.3672C32.7125 22.7187 33.3454 22.8945 34.111 22.8945ZM53.7307 8V11.75H42.6214V8H53.7307ZM45.1643 26V6.69922C45.1643 5.39453 45.4182 4.3125 45.9261 3.45312C46.4417 2.59375 47.1448 1.94922 48.0354 1.51953C48.9261 1.08984 49.9378 0.874998 51.0706 0.874998C51.8362 0.874998 52.5354 0.933593 53.1682 1.05078C53.8089 1.16797 54.2854 1.27344 54.5979 1.36719L53.7073 5.11719C53.512 5.05469 53.2698 4.99609 52.9807 4.9414C52.6995 4.88672 52.4104 4.85938 52.1136 4.85938C51.3792 4.85938 50.8675 5.03125 50.5784 5.375C50.2893 5.71094 50.1448 6.18359 50.1448 6.79297V26H45.1643ZM57.6913 26L52.7929 8H57.8437L60.6327 20.0937H60.7968L63.703 8H68.6601L71.6132 20.0234H71.7655L74.5077 8H79.5468L74.6601 26H69.3749L66.2812 14.6797H66.0585L62.9648 26H57.6913ZM79.6636 26V2H84.6558V11.0234H84.8082C85.0269 10.5391 85.3433 10.0469 85.7574 9.54687C86.1793 9.03906 86.7261 8.61719 87.398 8.28125C88.0777 7.9375 88.9214 7.76563 89.9293 7.76563C91.2418 7.76563 92.4527 8.10938 93.5621 8.79688C94.6714 9.47656 95.5582 10.5039 96.2222 11.8789C96.8863 13.2461 97.2183 14.9609 97.2183 17.0234C97.2183 19.0312 96.8941 20.7266 96.2457 22.1094C95.605 23.4844 94.73 24.5273 93.6207 25.2383C92.5191 25.9414 91.2847 26.293 89.9175 26.293C88.9488 26.293 88.1246 26.1328 87.4449 25.8125C86.773 25.4922 86.2222 25.0898 85.7925 24.6055C85.3629 24.1133 85.0347 23.6172 84.8082 23.1172H84.5855V26H79.6636ZM84.5504 17C84.5504 18.0703 84.6988 19.0039 84.9957 19.8008C85.2925 20.5977 85.7222 21.2187 86.2847 21.6641C86.8472 22.1016 87.5308 22.3203 88.3355 22.3203C89.148 22.3203 89.8355 22.0977 90.398 21.6523C90.9605 21.1992 91.3863 20.5742 91.6754 19.7773C91.9722 18.9727 92.1207 18.0469 92.1207 17C92.1207 15.9609 91.9761 15.0469 91.6871 14.2578C91.398 13.4687 90.9722 12.8516 90.4097 12.4062C89.8472 11.9609 89.1558 11.7383 88.3355 11.7383C87.523 11.7383 86.8355 11.9531 86.273 12.3828C85.7183 12.8125 85.2925 13.4219 84.9957 14.2109C84.6988 15 84.5504 15.9297 84.5504 17ZM102.902 15.5938V26H97.9094V2H102.761V11.1758H102.972C103.378 10.1133 104.034 9.28125 104.941 8.67969C105.847 8.07031 106.984 7.76563 108.351 7.76563C109.601 7.76563 110.691 8.03906 111.62 8.58594C112.558 9.125 113.284 9.90234 113.8 10.918C114.323 11.9258 114.581 13.1328 114.573 14.5391V26H109.581V15.4297C109.589 14.3203 109.308 13.457 108.738 12.8398C108.175 12.2227 107.386 11.9141 106.37 11.9141C105.691 11.9141 105.089 12.0586 104.566 12.3477C104.05 12.6367 103.644 13.0586 103.347 13.6133C103.058 14.1602 102.909 14.8203 102.902 15.5938ZM119.713 18.3636H121.831V26.3778C121.831 26.9678 121.715 27.4451 121.483 27.8097C121.251 28.1742 120.918 28.4411 120.483 28.6101C120.053 28.7791 119.537 28.8636 118.937 28.8636C118.864 28.8636 118.795 28.862 118.728 28.8587C118.659 28.8587 118.586 28.857 118.51 28.8537V27.1982C118.566 27.2015 118.616 27.2031 118.659 27.2031C118.699 27.2064 118.742 27.2081 118.788 27.2081C119.129 27.2081 119.368 27.1352 119.504 26.9893C119.643 26.8468 119.713 26.6314 119.713 26.343V18.3636ZM120.767 17.3793C120.455 17.3793 120.187 17.2749 119.961 17.0661C119.736 16.8539 119.623 16.6004 119.623 16.3054C119.623 16.0137 119.736 15.7635 119.961 15.5547C120.187 15.3426 120.455 15.2365 120.767 15.2365C121.085 15.2365 121.355 15.3426 121.577 15.5547C121.803 15.7635 121.915 16.0137 121.915 16.3054C121.915 16.6004 121.803 16.8539 121.577 17.0661C121.355 17.2749 121.085 17.3793 120.767 17.3793ZM124.585 26.1442C124.098 26.1442 123.663 26.0597 123.282 25.8906C122.901 25.7183 122.6 25.4647 122.377 25.13C122.159 24.7919 122.049 24.371 122.049 23.8672C122.049 23.4429 122.127 23.0866 122.283 22.7983C122.439 22.5099 122.651 22.2779 122.919 22.1023C123.188 21.9266 123.493 21.794 123.834 21.7045C124.179 21.6151 124.54 21.5521 124.918 21.5156C125.362 21.4692 125.72 21.4261 125.992 21.3864C126.264 21.3433 126.461 21.2803 126.583 21.1974C126.706 21.1146 126.767 20.992 126.767 20.8295V20.7997C126.767 20.4848 126.668 20.2412 126.469 20.0689C126.274 19.8965 125.995 19.8104 125.634 19.8104C125.253 19.8104 124.949 19.8949 124.724 20.0639C124.499 20.2296 124.35 20.4384 124.277 20.6903L122.318 20.5312C122.417 20.0672 122.613 19.6662 122.904 19.3281C123.196 18.9867 123.572 18.7249 124.033 18.5426C124.497 18.357 125.034 18.2642 125.644 18.2642C126.068 18.2642 126.474 18.3139 126.862 18.4134C127.253 18.5128 127.599 18.6669 127.901 18.8757C128.206 19.0845 128.446 19.353 128.622 19.6811C128.797 20.0059 128.885 20.3954 128.885 20.8494V26H126.877V24.9411H126.817C126.694 25.1797 126.53 25.3902 126.325 25.5724C126.119 25.7514 125.872 25.8923 125.584 25.995C125.296 26.0945 124.963 26.1442 124.585 26.1442ZM125.191 24.6825C125.503 24.6825 125.778 24.6212 126.017 24.4986C126.255 24.3726 126.443 24.2036 126.578 23.9915C126.714 23.7794 126.782 23.5391 126.782 23.2706V22.4602C126.716 22.5033 126.625 22.5431 126.509 22.5795C126.396 22.6127 126.269 22.6442 126.126 22.674C125.984 22.7005 125.841 22.7254 125.698 22.7486C125.556 22.7685 125.427 22.7867 125.311 22.8033C125.062 22.8397 124.845 22.8977 124.659 22.9773C124.474 23.0568 124.33 23.1645 124.227 23.3004C124.124 23.433 124.073 23.5987 124.073 23.7976C124.073 24.0859 124.177 24.3063 124.386 24.4588C124.598 24.608 124.867 24.6825 125.191 24.6825ZM129.369 26V24.7372L133.107 20.1087V20.054H129.498V18.3636H135.658V19.7408L132.148 24.255V24.3097H135.787V26H129.369ZM136.247 26V24.7372L139.985 20.1087V20.054H136.376V18.3636H142.536V19.7408L139.026 24.255V24.3097H142.665V26H136.247Z" fill="white"/>
</svg>
